<svg width="30pt" height="30pt" viewBox="0 0 30 30" xmlns="http://www.w3.org/2000/svg"><g id="fontsvg1672609390301" stroke-linecap="round" fill-rule="evenodd" fill="#000000"><path d="M 14.21 0 L 15.089 0 A 13.136 13.136 0 0 1 21.845 1.922 A 19.443 19.443 0 0 1 25.313 4.57 A 24.586 24.586 0 0 1 27.06 6.953 Q 28.807 9.693 29.034 12.041 A 61.268 61.268 0 0 1 29.124 12.593 Q 29.255 13.428 29.287 13.822 A 2.689 2.689 0 0 1 29.298 14.033 L 29.298 15.234 A 10.624 10.624 0 0 1 28.972 17.752 Q 28.687 18.918 28.153 20.198 A 23.94 23.94 0 0 1 27.305 22.002 Q 24.405 26.748 19.073 28.594 A 33.778 33.778 0 0 1 17.635 28.934 Q 16.238 29.229 15.253 29.284 A 7.705 7.705 0 0 1 14.825 29.297 L 14.473 29.297 A 13.879 13.879 0 0 1 6.76 26.915 A 19.549 19.549 0 0 1 4.073 24.785 Q 0.001 20.273 0.001 14.297 L 0.001 14.121 A 0.802 0.802 0 0 1 0.018 13.953 A 0.596 0.596 0 0 1 0.089 13.77 A 0.127 0.127 0 0 0 0.084 13.735 Q 0.069 13.682 0.001 13.682 A 22.253 22.253 0 0 1 0.579 10.744 Q 0.983 9.262 1.579 8.05 A 11.432 11.432 0 0 1 2.257 6.855 A 13.999 13.999 0 0 1 8.024 1.642 A 18.886 18.886 0 0 1 10.577 0.586 A 19.463 19.463 0 0 1 12.069 0.23 Q 13.255 0 14.21 0 Z M 12.217 9.346 L 12.305 12.041 A 0.138 0.138 0 0 1 12.281 12.115 Q 12.23 12.195 12.075 12.286 A 1.638 1.638 0 0 1 12.042 12.305 L 10.577 12.305 L 10.577 15.322 L 12.042 15.322 A 0.18 0.18 0 0 1 12.154 15.364 Q 12.217 15.413 12.273 15.52 A 1.057 1.057 0 0 1 12.305 15.586 L 12.305 23.057 L 12.364 23.584 L 15.44 23.584 L 15.44 15.527 Q 15.46 15.388 15.521 15.343 A 0.108 0.108 0 0 1 15.587 15.322 L 18.106 15.322 A 0.066 0.066 0 0 0 18.151 15.278 Q 18.315 14.967 18.546 12.48 L 18.546 12.305 L 15.587 12.305 A 0.173 0.173 0 0 1 15.523 12.294 Q 15.448 12.265 15.441 12.153 A 0.378 0.378 0 0 1 15.44 12.129 L 15.44 10.049 A 1.686 1.686 0 0 1 15.543 9.436 Q 15.826 8.709 16.88 8.594 A 3.426 3.426 0 0 1 16.993 8.584 L 18.721 8.584 L 18.721 5.977 A 0.131 0.131 0 0 0 18.63 5.871 Q 18.313 5.713 16.905 5.713 L 16.466 5.713 A 6.037 6.037 0 0 0 15.025 5.872 Q 14.054 6.111 13.413 6.709 A 3.462 3.462 0 0 0 12.569 7.969 A 4.587 4.587 0 0 0 12.465 8.286 Q 12.37 8.608 12.275 9.058 A 18.217 18.217 0 0 0 12.217 9.346 Z" vector-effect="non-scaling-stroke"/></g></svg>